<?xml version="1.0" standalone="no"?>
<!DOCTYPE svg PUBLIC "-//W3C//DTD SVG 20010904//EN"
 "http://www.w3.org/TR/2001/REC-SVG-20010904/DTD/svg10.dtd">
<svg version="1.0" xmlns="http://www.w3.org/2000/svg"
 width="700.000000pt" height="700.000000pt" viewBox="0 0 700.000000 700.000000"
 preserveAspectRatio="xMidYMid meet">
<metadata>
Created by potrace 1.11, written by Peter Selinger 2001-2013
</metadata>
<g transform="translate(0.000000,700.000000) scale(0.100000,-0.100000)"
fill="#000000" stroke="none">
<path d="M3278 6995 c-1 -1 -41 -5 -88 -9 -87 -7 -105 -9 -225 -27 -116 -18
-123 -19 -192 -35 -184 -42 -248 -59 -369 -99 -264 -88 -538 -216 -759 -356
-346 -217 -655 -497 -910 -824 -238 -304 -432 -668 -559 -1047 -31 -94 -79
-267 -91 -329 -3 -13 -11 -58 -20 -99 -29 -147 -36 -200 -52 -370 -15 -165 -8
-592 12 -711 2 -13 6 -46 9 -74 9 -78 23 -156 51 -285 23 -107 88 -333 114
-395 5 -11 25 -65 46 -120 50 -132 181 -398 250 -508 30 -49 55 -90 55 -93 0
-3 4 -10 10 -17 5 -7 46 -64 91 -126 188 -267 410 -501 679 -716 92 -74 370
-265 386 -265 4 0 15 -6 23 -14 27 -23 260 -140 392 -196 281 -120 597 -208
874 -245 22 -2 56 -7 75 -10 182 -26 652 -26 844 -1 182 24 363 60 528 107
1223 345 2168 1334 2456 2569 27 116 33 142 46 225 36 218 41 300 41 600 -1
306 -19 477 -81 755 -28 124 -38 158 -92 325 -243 752 -777 1431 -1464 1864
-54 33 -100 61 -103 61 -3 0 -24 12 -46 26 -125 78 -417 207 -623 273 -126 41
-366 102 -456 116 -25 4 -54 9 -65 11 -11 3 -56 9 -100 14 -44 6 -96 13 -115
16 -36 6 -566 15 -572 9z"/>
</g>
</svg>
